<?xml version="1.0"?>
<svg xmlns="http://www.w3.org/2000/svg" xmlns:xlink="http://www.w3.org/1999/xlink" version="1.1" id="Capa_1" x="0px" y="0px" viewBox="0 0 15.663 15.663" style="enable-background:new 0 0 15.663 15.663;" xml:space="preserve" width="512px" height="512px"><g><g>
	<g>
		<path d="M7.832,0.883C3.513,0.883,0,3.432,0,6.564c0,2.076,1.526,3.956,4.002,4.957    c-0.045,0.411-0.322,1.177-1.513,2.259c-0.198,0.181-0.246,0.469-0.118,0.701c0.101,0.185,0.294,0.298,0.504,0.298    c0.051,0,0.102-0.007,0.151-0.021c0.142-0.037,3.441-0.949,5.514-2.542c4.004-0.26,7.123-2.726,7.123-5.652    C15.663,3.432,12.15,0.883,7.832,0.883z M8.377,11.451l-0.124,0.006l-0.096,0.078c-1.39,1.103-3.452,1.877-4.562,2.241    c1.059-1.145,1.237-2.011,1.179-2.562L4.75,10.977l-0.226-0.084c-2.313-0.858-3.75-2.517-3.75-4.329    c0-2.706,3.166-4.907,7.058-4.907c3.891,0,7.057,2.201,7.057,4.907C14.889,9.109,12.028,11.254,8.377,11.451z" data-original="#030104" class="active-path" data-old_color="#030104" fill="#CFCFCF"/>
		<path d="M6.045,4.237H5.178c-0.219,0-0.398,0.179-0.398,0.398v4.404c0,0.22,0.179,0.398,0.398,0.398h0.867    c0.22,0,0.398-0.179,0.398-0.398V4.636C6.443,4.416,6.264,4.237,6.045,4.237z" data-original="#030104" class="active-path" data-old_color="#030104" fill="#CFCFCF"/>
		<path d="M10.484,5.977H9.619c-0.221,0-0.399,0.179-0.399,0.398v2.664c0,0.22,0.179,0.398,0.399,0.398h0.865    c0.221,0,0.399-0.179,0.399-0.398V6.375C10.883,6.156,10.704,5.977,10.484,5.977z" data-original="#030104" class="active-path" data-old_color="#030104" fill="#CFCFCF"/>
		<path d="M8.278,3.154H7.412c-0.22,0-0.398,0.179-0.398,0.398v5.487c0,0.22,0.179,0.398,0.398,0.398h0.866    c0.219,0,0.397-0.179,0.397-0.398V3.552C8.675,3.333,8.497,3.154,8.278,3.154z M8.319,8.858H7.4V3.734h0.928L8.319,8.858z" data-original="#030104" class="active-path" data-old_color="#030104" fill="#CFCFCF"/>
	</g>
</g></g> </svg>
